<svg width="5734" height="1548" viewBox="0 0 5734 1548" fill="none" xmlns="http://www.w3.org/2000/svg">
<path fill-rule="evenodd" clip-rule="evenodd" d="M5.80761 212.256L11.5914 420.649L96.463 418.9L181.315 417.13L179.67 299.238L178.005 181.347L320.885 181.25L463.765 181.153L480.338 778.27L496.91 1375.39L383.698 1375.46L270.486 1375.54L272.866 1461.29L275.245 1547.01L599.989 1546.79L924.752 1546.57L922.372 1460.84L919.993 1375.1L806.761 1375.18L693.549 1375.25L674.513 689.345L655.475 3.41702L327.749 3.63942L0.0238037 3.86182L5.80761 212.256ZM1629.21 91.5691L1631.67 180.36L1986.22 180.12L2340.75 179.879L2347.46 421.791L2354.17 663.703L2026.45 663.925L1698.72 664.148L1701.19 752.939L1703.65 841.75L2031.38 841.528L2359.1 841.305L2366.5 1107.7L2373.89 1374.11L2019.36 1374.35L1664.82 1374.59L1667.2 1460.34L1669.58 1546.07L2122.44 1545.76L2575.29 1545.45L2553.87 773.797L2532.46 2.14326L2079.61 2.45057L1626.74 2.7579L1629.21 91.5691ZM3208.27 90.4976L3210.73 179.289L3562.28 179.05L3913.84 178.812L3920.56 420.723L3927.27 662.635L3602.53 662.856L3277.78 663.076L3280.25 751.867L3282.71 840.679L3607.46 840.458L3932.2 840.238L3939.59 1106.63L3946.99 1373.04L3595.42 1373.28L3243.88 1373.52L3246.26 1459.27L3248.64 1544.99L3698.5 1544.69L4148.39 1544.38L4126.97 772.729L4105.55 1.07573L3655.67 1.38103L3205.8 1.68632L3208.27 90.4976ZM4740.26 274.707L4749.41 548.762L4834.36 550.416L4919.33 552.051L4914.14 365.093L4908.95 178.136L5206.87 177.934L5504.81 177.732L5523.76 860.595L5542.72 1543.44L5638.05 1543.37L5733.39 1543.31L5711.97 771.654L5690.56 0.000119597L5210.83 0.325671L4731.08 0.651235L4740.26 274.707Z" fill="white"/>
</svg>
